<svg width="256" height="256" viewBox="0 0 256 256" xmlns="http://www.w3.org/2000/svg">
  <defs>
    <linearGradient id="g" x1="0" y1="0" x2="1" y2="1">
      <stop offset="0" stop-color="#2563EB"/>
      <stop offset="1" stop-color="#1D4ED8"/>
    </linearGradient>
    <filter id="s" x="-20%" y="-20%" width="140%" height="140%">
      <feDropShadow dx="0" dy="6" stdDeviation="10" flood-color="#0a1f55" flood-opacity=".25"/>
    </filter>
  </defs>

  <rect x="8" y="8" width="240" height="240" rx="48" fill="url(#g)"/>

  <!-- Stylized Z -->
  <path d="M58 184 L152 68 H90 L98 48 H198 L104 168 H170 L162 188 Z"
        fill="#fff" filter="url(#s)"/>

  <!-- Runner (white) -->
  <circle cx="172" cy="82" r="10" fill="#fff"/>
  <path d="M168 96 L150 120 L128 114 L124 126 L146 132 L160 112 L170 126 L182 124 L174 108 L186 100 L180 92 L168 96 Z"
        fill="#fff"/>
  <!-- Phone with green screen in hand -->
  <rect x="182" y="94" width="8" height="14" rx="1.5" fill="#0EA5E9"/>
  <rect x="184" y="96" width="4" height="8" rx="1" fill="#22C55E"/>
</svg>
